# xmcd CD database file
#
# Track frame offsets:
#	150
#	13018
#	24429
#	35004
#	46034
#	59406
#	72713
#	87070
#	100887
#	113680
#	127098
#	138425
#	150631
#	165276
#	178386
#	191241
#	203780
#	215721
#	227084
#	239759
#	250794
#	264402
#	276854
#	290406
#
# Disc length: 4034 seconds
#
# Revision: 1
# Processed by: cddbd v1.5.2PL0 Copyright (c) Steve Scherf et al.
# Submitted via: CDex 1.70beta2
#
DISCID=660fc018
DTITLE=Professor Longhair - Tipitina [CD1]
DYEAR=2008
DGENRE=Blues
TTITLE0=She Ain't Got No Hair
TTITLE1=Bye Bye Baby
TTITLE2=Professr Longhair's Boogie
TTITLE3=Mardi Gras In New Orleans
TTITLE4=Hey Now Baby 
TTITLE5=Mardi Gras In New Orleans
TTITLE6=She Walks Right In 
TTITLE7=Hey Little Girl
TTITLE8=Willie Mae
TTITLE9=Walk Your Blues Away
TTITLE10=Professor Longhair Blues
TTITLE11=Boogie Woogie
TTITLE12=Loghair Blues Rhumba
TTITLE13=Mardi Gras In New Orleans
TTITLE14=She Walks Right IN
TTITLE15=Byrd's Blues
TTITLE16=Her MInd Is Gone
TTITLE17=Bald Head
TTITLE18=Hey Now Baby 
TTITLE19=Oh Well
TTITLE20=Hadacol Bounce
TTITLE21=Longhair Stomp
TTITLE22=Been Foolin' Around
TTITLE23=Between The NIght And Day
EXTD=YEAR: 2008
EXTT0=
EXTT1=
EXTT2=
EXTT3=
EXTT4=
EXTT5=
EXTT6=
EXTT7=
EXTT8=
EXTT9=
EXTT10=
EXTT11=
EXTT12=
EXTT13=
EXTT14=
EXTT15=
EXTT16=
EXTT17=
EXTT18=
EXTT19=
EXTT20=
EXTT21=
EXTT22=
EXTT23=
PLAYORDER=
